<svg xmlns="http://www.w3.org/2000/svg" width="17.106" height="20.426" viewBox="0 0 17.106 20.426">
  <g id="direccion" transform="translate(0)">
    <path id="Trazado_531" data-name="Trazado 531" d="M49.278,20.624l-.593-.509c-.818-.685-7.96-6.853-7.96-11.364a8.553,8.553,0,0,1,17.106,0c0,4.512-7.142,10.679-7.956,11.368Zm0-18.576a6.711,6.711,0,0,0-6.7,6.7c0,2.834,4.394,7.362,6.7,9.434,2.31-2.073,6.7-6.6,6.7-9.434A6.711,6.711,0,0,0,49.278,2.047Z" transform="translate(-40.725 -0.198)" fill="#D10C00"/>
    <path id="Trazado_532" data-name="Trazado 532" d="M173.516,136.38a3.39,3.39,0,1,1,3.39-3.39A3.39,3.39,0,0,1,173.516,136.38Zm0-5.086a1.7,1.7,0,1,0,1.7,1.7A1.7,1.7,0,0,0,173.516,131.294Z" transform="translate(-164.963 -124.436)" fill="#D10C00"/>
  </g>
</svg>
